<svg xmlns="http://www.w3.org/2000/svg" width="512" height="512" viewBox="0 0 512 512" version="1.1">
	<path d="M 0 256.002 L 0 512.004 256.250 511.752 L 512.500 511.500 512.752 255.750 L 513.004 0 256.502 0 L 0 0 0 256.002 M 0.492 256.500 C 0.492 397.300, 0.608 454.751, 0.750 384.170 C 0.892 313.588, 0.892 198.388, 0.750 128.170 C 0.608 57.951, 0.492 115.700, 0.492 256.500 M 152.882 82.320 C 143.844 85.701, 138.366 90.760, 134.434 99.357 C 132.072 104.521, 131.808 106.130, 132.204 112.957 C 132.698 121.488, 134.500 125.502, 140.905 132.335 C 146.439 138.238, 151.220 140.275, 160.772 140.799 C 168.499 141.223, 169.466 141.045, 175.464 138.092 C 184.219 133.782, 189.297 127.388, 191.437 117.975 C 192.680 112.514, 192.789 110.022, 191.951 106.283 C 189.527 95.467, 184.131 88.178, 175.427 83.965 C 169.613 81.150, 158.229 80.320, 152.882 82.320 M 338.703 82.442 C 316.939 90.206, 311.004 118.026, 327.863 133.257 C 333.169 138.051, 336.668 139.768, 343.140 140.755 C 356.881 142.849, 369.685 136.475, 375.464 124.664 C 385.378 104.400, 370.629 80.868, 348.124 81.044 C 345.031 81.068, 340.791 81.697, 338.703 82.442 M 56.500 210.208 C 52.219 212.663, 52.065 213.596, 52.032 237.210 L 52 259.919 54.740 262.460 C 56.247 263.857, 58.224 265, 59.134 265 C 60.045 265, 63.838 265.942, 67.564 267.093 C 76.239 269.772, 79.479 272.912, 80.393 279.526 C 80.771 282.262, 81.952 289.450, 83.018 295.500 C 85.380 308.916, 89.437 333.322, 91.993 349.500 C 94.345 364.384, 96.475 377.227, 98.957 391.500 C 100.010 397.550, 101.621 407.450, 102.538 413.500 C 104.197 424.447, 106.466 430.197, 109.602 431.401 C 110.461 431.730, 176.562 432, 256.493 432 L 401.822 432 404.342 429.005 C 407.704 425.010, 406.843 428.658, 415.555 381.500 C 416.876 374.350, 419.282 361.525, 420.902 353 C 424.241 335.427, 427.350 318.982, 432.529 291.500 C 435.479 275.845, 437.629 268.337, 439.273 267.946 C 439.398 267.916, 443.036 267.521, 447.359 267.068 C 454.288 266.342, 455.588 265.873, 458.357 263.105 L 461.497 259.965 461.856 237.513 L 462.216 215.062 459.185 212.031 L 456.154 209 257.327 209.030 C 109.666 209.053, 57.985 209.356, 56.500 210.208 M 368 225.046 C 364.425 226.605, 360.825 228.106, 360 228.381 C 359.175 228.657, 352.875 231.306, 346 234.268 L 333.500 239.654 332.711 248.577 C 329.592 283.837, 312.066 310.839, 285.073 321.970 C 274.717 326.240, 267.790 327.319, 254.279 326.767 C 241.805 326.256, 237.222 325.111, 226.226 319.757 C 203.764 308.820, 186.121 280.886, 184.316 253.400 C 183.981 248.310, 183.436 243.738, 183.104 243.241 C 182.378 242.153, 140.747 226, 138.671 226 C 136.946 226, 136.495 227.626, 134.926 239.500 C 133.526 250.097, 134.199 267.389, 136.414 277.725 C 146.811 326.245, 185.777 362.800, 237 372.087 C 245.287 373.590, 268.493 373.617, 277.148 372.133 C 293.372 369.353, 315.237 360.830, 326.805 352.777 C 341.223 342.740, 355.621 327.689, 363.636 314.275 C 376.370 292.967, 382.553 266.389, 380.040 243.768 C 378.701 231.715, 376.760 222.710, 375.439 222.419 C 374.922 222.305, 371.575 223.488, 368 225.046" stroke="none" fill="black" fill-rule="evenodd"/>
</svg>