<svg width="40" height="40" viewBox="0 0 40 40" fill="none" xmlns="http://www.w3.org/2000/svg">
<path d="M32 1.33336H26C26 0.6 25.4 0 24.6666 0H15.3334C14.6 0 14 0.6 14 1.33336H8C6.86664 1.33336 6 2.2 6 3.33336V38C6 39.1334 6.86664 40 8 40H32C33.1334 40 34 39.1334 34 38V3.33336C34 2.2 33.1334 1.33336 32 1.33336ZM15.3334 6.66664H24.6667C25.4001 6.66664 26.0001 6.06664 26.0001 5.33328H30V36H10V5.33336H14C14 6.06664 14.6 6.66664 15.3334 6.66664ZM15.3334 1.33336H24.6667V2V4.66664V5.33328H15.3334V4.66664V2V1.33336ZM32.6666 38C32.6666 38.4 32.4 38.6666 32 38.6666H8C7.6 38.6666 7.33336 38.4 7.33336 38V3.33336C7.33336 2.93336 7.6 2.66672 8 2.66672H14V4H10C9.26664 4 8.66664 4.6 8.66664 5.33336V36C8.66664 36.7334 9.26664 37.3334 10 37.3334H30C30.7334 37.3334 31.3334 36.7334 31.3334 36V5.33336C31.3334 4.6 30.7334 4 30 4H26V2.66664H32C32.4 2.66664 32.6666 2.93328 32.6666 3.33328V38Z" fill="#8629FD"/>
<path d="M11.334 9.33337V13.3334C11.334 13.7334 11.6006 14 12.0006 14H18.6673C19.0673 14 19.3339 13.7334 19.3339 13.3334V9.33337C19.3339 8.93337 19.0673 8.66673 18.6673 8.66673H12.0006C11.6006 8.66665 11.334 8.93337 11.334 9.33337ZM12.6673 10H18.0006V12.6667H12.6673V10Z" fill="#8629FD"/>
<path d="M11.334 17.3334C11.334 17.7334 11.6006 18 12.0006 18H28.0006C28.4006 18 28.6673 17.7334 28.6673 17.3334C28.6673 16.9334 28.4006 16.6667 28.0006 16.6667H12.0006C11.6006 16.6666 11.334 16.9334 11.334 17.3334Z" fill="#8629FD"/>
<path d="M12.0006 20.6666H26.6673C27.0673 20.6666 27.3339 20.4 27.3339 20C27.3339 19.6 27.0673 19.3334 26.6673 19.3334H12.0006C11.6006 19.3334 11.334 19.6 11.334 20C11.334 20.4 11.6006 20.6666 12.0006 20.6666Z" fill="#8629FD"/>
<path d="M26.6673 22.6666C26.6673 22.2666 26.4006 22 26.0006 22H12.0006C11.6006 22 11.334 22.2666 11.334 22.6666C11.334 23.0666 11.6006 23.3333 12.0006 23.3333H26.0006C26.4006 23.3334 26.6673 23.0666 26.6673 22.6666Z" fill="#8629FD"/>
<path d="M27.0666 28.1334C26.7332 27.8667 26.3332 28 26.1332 28.2667L23.3203 32.2048L21.8666 30.2666C21.6666 30 21.2 29.9333 20.9332 30.1333C20.6665 30.3333 20.5999 30.7999 20.7999 31.0666L22.7625 33.6834C22.7796 33.7098 22.7989 33.7347 22.8194 33.7586C22.9523 33.9379 23.1425 33.9999 23.3332 33.9999C23.5332 33.9999 23.7332 33.9333 23.8666 33.7333L27.2 29.0666C27.4666 28.7334 27.3333 28.3334 27.0666 28.1334Z" fill="#8629FD"/>
</svg>
