<svg width="51" height="51" viewBox="0 0 51 51" fill="none" xmlns="http://www.w3.org/2000/svg">
<path d="M23.3984 24.1638V23.1438C23.5337 23.1438 23.6634 23.0901 23.759 22.9944C23.8547 22.8988 23.9084 22.769 23.9084 22.6338V20.5938C23.9084 20.4585 23.8547 20.3288 23.759 20.2332C23.6634 20.1375 23.5337 20.0838 23.3984 20.0838H10.6484C10.3779 20.0838 10.1184 20.1912 9.92715 20.3825C9.73586 20.5738 9.6284 20.8333 9.6284 21.1038V23.1438H11.6684V24.1638H9.1184C8.98314 24.1638 8.85342 24.1101 8.75777 24.0144C8.66213 23.9188 8.6084 23.789 8.6084 23.6538V21.1038C8.6084 20.5627 8.82333 20.0439 9.2059 19.6613C9.58848 19.2787 10.1074 19.0638 10.6484 19.0638H23.3984C23.8042 19.0638 24.1933 19.225 24.4803 19.5119C24.7672 19.7988 24.9284 20.188 24.9284 20.5938V22.6338C24.9284 23.0396 24.7672 23.4287 24.4803 23.7157C24.1933 24.0026 23.8042 24.1638 23.3984 24.1638V24.1638Z" fill="#8629FD"/>
<path d="M18 10V15L16 12.915L14 15V10H18Z" stroke="#8629FD" stroke-linejoin="round"/>
<path d="M39.2087 18.0388C37.5563 18.0388 35.6387 16.7026 35.6387 14.9788C35.6387 13.255 37.5563 11.9188 39.2087 11.9188C39.3439 11.9188 39.4737 11.9725 39.5693 12.0681C39.6649 12.1638 39.7187 12.2935 39.7187 12.4288V17.5288C39.7187 17.664 39.6649 17.7938 39.5693 17.8894C39.4737 17.985 39.3439 18.0388 39.2087 18.0388ZM38.6987 12.9949C37.6787 13.2142 36.6587 14.0149 36.6587 14.9788C36.6587 15.9427 37.6787 16.7434 38.6987 16.9627V12.9949V12.9949Z" fill="#8629FD"/>
<path d="M22.3791 19.9513H21.3591V10.5162H10.1391V19.9513H9.11914V10.0062C9.11914 9.87099 9.17287 9.74127 9.26852 9.64562C9.36416 9.54998 9.49388 9.49625 9.62914 9.49625H21.8691C22.0044 9.49625 22.1341 9.54998 22.2298 9.64562C22.3254 9.74127 22.3791 9.87099 22.3791 10.0062V19.9513V19.9513Z" fill="#8629FD"/>
<path d="M23.3984 24.1638V23.1438C23.5337 23.1438 23.6634 23.0901 23.759 22.9944C23.8547 22.8988 23.9084 22.769 23.9084 22.6338V20.5938C23.9084 20.4585 23.8547 20.3288 23.759 20.2332C23.6634 20.1375 23.5337 20.0838 23.3984 20.0838H10.6484C10.3779 20.0838 10.1184 20.1912 9.92715 20.3825C9.73586 20.5738 9.6284 20.8333 9.6284 21.1038V23.1438H11.6684V24.1638H9.1184C8.98314 24.1638 8.85342 24.1101 8.75777 24.0144C8.66213 23.9188 8.6084 23.789 8.6084 23.6538V21.1038C8.6084 20.5627 8.82333 20.0439 9.2059 19.6613C9.58848 19.2787 10.1074 19.0638 10.6484 19.0638H23.3984C23.8042 19.0638 24.1933 19.225 24.4803 19.5119C24.7672 19.7988 24.9284 20.188 24.9284 20.5938V22.6338C24.9284 23.0396 24.7672 23.4287 24.4803 23.7157C24.1933 24.0026 23.8042 24.1638 23.3984 24.1638V24.1638Z" fill="#8629FD"/>
<path d="M35.8354 16.2637L34.9424 16.7566L40.5718 26.9543L41.4648 26.4614L35.8354 16.2637Z" fill="#8629FD"/>
<path d="M37.169 35.8937H15.749V36.9137H37.169V35.8937Z" fill="#8629FD"/>
<path d="M15.7535 33.3438H15.5342V34.3638H15.7535V33.3438Z" fill="#8629FD"/>
<path d="M4.74228 34.3638H1.97809C1.89945 34.3661 1.82134 34.3502 1.74987 34.3173C1.67841 34.2844 1.61552 34.2355 1.56613 34.1742C1.51675 34.113 1.4822 34.0411 1.46519 33.9643C1.44818 33.8875 1.44917 33.8078 1.46809 33.7314L2.29429 30.4776C2.8195 28.3825 4.02967 26.5229 5.73261 25.1942C7.43555 23.8655 9.53361 23.1438 11.6936 23.1438H23.4236C23.4985 23.1427 23.5728 23.1582 23.6411 23.189C23.7094 23.2199 23.77 23.2654 23.8187 23.3224C23.8674 23.3794 23.9029 23.4464 23.9228 23.5187C23.9426 23.5909 23.9463 23.6667 23.9336 23.7405L22.7657 30.5388C22.7283 30.76 22.74 30.9867 22.7999 31.2029C22.8599 31.419 22.9666 31.6194 23.1126 31.7897C23.2586 31.96 23.4402 32.0961 23.6447 32.1885C23.8491 32.2808 24.0714 32.327 24.2957 32.3238H29.8139C30.1387 32.324 30.4551 32.2208 30.7173 32.0291C30.9795 31.8375 31.174 31.5674 31.2725 31.2579L33.5726 24.0771L31.1093 15.7131L29.2631 12.9438H26.4581V11.9238H29.5181C29.6021 11.9243 29.6847 11.9454 29.7585 11.9855C29.8324 12.0255 29.8952 12.0832 29.9414 12.1533L31.9814 15.2133C32.0103 15.2556 32.0326 15.3021 32.0477 15.351L34.5977 23.9394C34.6279 24.0374 34.6279 24.1423 34.5977 24.2403L32.2466 31.569C32.0814 32.083 31.7573 32.5313 31.3211 32.8493C30.8848 33.1674 30.3589 33.3387 29.819 33.3387H24.2804C23.9098 33.3393 23.5435 33.2591 23.2071 33.1037C22.8707 32.9483 22.5722 32.7214 22.3324 32.4389C22.0925 32.1564 21.9172 31.8249 21.8185 31.4677C21.7198 31.1105 21.7002 30.7361 21.761 30.3705L22.781 24.1587H11.6936C9.76004 24.1591 7.88211 24.8058 6.35831 25.996C4.8345 27.1862 3.75228 28.8516 3.28368 30.7275L2.63598 33.3438H4.74228V34.3638Z" fill="#8629FD"/>
<path d="M42.7788 38.4438C42.1735 38.4438 41.5819 38.2643 41.0787 37.9281C40.5755 37.5919 40.1833 37.114 39.9517 36.5548C39.7201 35.9957 39.6595 35.3804 39.7775 34.7868C39.8956 34.1932 40.1871 33.648 40.615 33.2201C41.043 32.7921 41.5882 32.5007 42.1818 32.3826C42.7754 32.2645 43.3906 32.3251 43.9498 32.5567C44.5089 32.7883 44.9868 33.1805 45.323 33.6838C45.6593 34.187 45.8387 34.7786 45.8387 35.3838C45.8387 36.1954 45.5164 36.9737 44.9425 37.5476C44.3686 38.1214 43.5903 38.4438 42.7788 38.4438ZM42.7788 33.3438C42.3753 33.3438 41.9809 33.4635 41.6454 33.6876C41.3099 33.9118 41.0484 34.2304 40.894 34.6031C40.7396 34.9759 40.6992 35.3861 40.7779 35.7818C40.8567 36.1775 41.051 36.541 41.3363 36.8263C41.6216 37.1116 41.985 37.3059 42.3808 37.3846C42.7765 37.4633 43.1867 37.4229 43.5594 37.2685C43.9322 37.1141 44.2508 36.8526 44.4749 36.5172C44.6991 36.1817 44.8187 35.7873 44.8187 35.3838C44.8187 34.8428 44.6038 34.3239 44.2212 33.9413C43.8387 33.5587 43.3198 33.3438 42.7788 33.3438Z" fill="#8629FD"/>
<path d="M36.9137 17.0237H31.8596C31.7195 17.0254 31.5839 16.9736 31.4806 16.8788C31.3774 16.7841 31.3141 16.6535 31.3037 16.5137V13.4537C31.3037 13.3185 31.3574 13.1888 31.4531 13.0931C31.5487 12.9975 31.6785 12.9437 31.8137 12.9437H36.9137V13.9637H32.3237V16.0037H36.9137V17.0237Z" fill="#8629FD"/>
<path d="M33.4555 36.0519C33.2927 33.797 33.9676 31.5614 35.351 29.7733C36.7344 27.9852 38.729 26.7705 40.9525 26.3619C41.2749 26.3042 41.6 26.2634 41.9266 26.2395C43.3159 26.1312 44.7116 26.3424 46.0067 26.8569C47.3018 27.3714 48.4619 28.1755 49.3981 29.2077C49.4856 29.302 49.5342 29.4259 49.5342 29.5545C49.5342 29.6831 49.4856 29.807 49.3981 29.9013L47.506 31.9413L46.7614 31.2477L48.322 29.5698C47.4937 28.7592 46.5021 28.1344 45.4135 27.7369C44.3248 27.3395 43.164 27.1785 42.0082 27.2646C41.7175 27.2873 41.4281 27.3248 41.1412 27.3768C39.1662 27.7383 37.3938 28.8153 36.163 30.4017C34.9323 31.9881 34.3297 33.9725 34.4704 35.9754L33.4555 36.0519Z" fill="#8629FD"/>
<path d="M42.7782 41.5038C41.3458 41.5031 39.959 40.9999 38.8593 40.082C37.7597 39.1641 37.0168 37.8895 36.7602 36.4803C36.6925 36.1187 36.6584 35.7516 36.6582 35.3838C36.6573 34.1481 37.0305 32.9411 37.7286 31.9216C38.4267 30.9021 39.4172 30.1177 40.5695 29.6718C41.7219 29.2259 42.9823 29.1392 44.1849 29.4232C45.3875 29.7072 46.4759 30.3486 47.307 31.263V31.263C48.1059 32.1402 48.6326 33.2306 48.8229 34.4017C49.0133 35.5728 48.8592 36.7739 48.3794 37.859C47.8995 38.9441 47.1146 39.8663 46.1202 40.5134C45.1257 41.1605 43.9647 41.5045 42.7782 41.5038V41.5038ZM42.7782 30.2838C41.4256 30.2838 40.1284 30.8211 39.172 31.7776C38.2155 32.734 37.6782 34.0312 37.6782 35.3838C37.6707 35.6876 37.6912 35.9915 37.7394 36.2916C37.8803 37.0686 38.1998 37.8024 38.6726 38.4349C39.1454 39.0675 39.7587 39.5816 40.4641 39.9367C41.1695 40.2918 41.9477 40.4783 42.7374 40.4814C43.5271 40.4846 44.3068 40.3042 45.015 39.9547C45.7231 39.6051 46.3404 39.0959 46.8182 38.4671C47.296 37.8383 47.6213 37.1071 47.7684 36.3312C47.9154 35.5553 47.8803 34.7558 47.6657 33.9958C47.4511 33.2357 47.063 32.5359 46.5318 31.9515C46.0559 31.4285 45.4765 31.0102 44.8303 30.7231C44.1841 30.436 43.4853 30.2864 42.7782 30.2838V30.2838Z" fill="#8629FD"/>
<path d="M10.139 41.5038C9.19258 41.5036 8.25914 41.2838 7.41202 40.8619C6.5649 40.44 5.82717 39.8273 5.25681 39.0721C4.68645 38.3169 4.29901 37.4398 4.12493 36.5095C3.95085 35.5793 3.99488 34.6213 4.25356 33.711C4.28441 33.6007 4.3515 33.504 4.44402 33.4364C4.53653 33.3689 4.64909 33.3345 4.76356 33.3387H8.12956V34.3587H5.14606C4.99863 35.024 4.98603 35.7122 5.10902 36.3825C5.23201 37.0528 5.48808 37.6916 5.86212 38.2613C6.23616 38.8309 6.72057 39.3198 7.28673 39.6991C7.8529 40.0784 8.48935 40.3404 9.15847 40.4696C9.82759 40.5988 10.5158 40.5925 11.1825 40.4513C11.8492 40.31 12.4808 40.0366 13.04 39.6471C13.5992 39.2576 14.0747 38.76 14.4384 38.1837C14.802 37.6074 15.0465 36.964 15.1574 36.2916C15.2128 35.9905 15.2402 35.6849 15.239 35.3787C15.2384 35.0359 15.2025 34.6941 15.1319 34.3587H12.1688V33.3387H15.5348C15.6492 33.3345 15.7618 33.3689 15.8543 33.4364C15.9468 33.504 16.0139 33.6007 16.0448 33.711C16.2012 34.2532 16.2818 34.8144 16.2845 35.3787C16.2844 35.7466 16.2502 36.1136 16.1825 36.4752C15.9261 37.8897 15.18 39.1688 14.075 40.0883C12.9699 41.0077 11.5765 41.5089 10.139 41.5038V41.5038Z" fill="#8629FD"/>
<path d="M10.1381 38.4438C9.32656 38.4438 8.54824 38.1214 7.97438 37.5475C7.40052 36.9737 7.07813 36.1953 7.07813 35.3838C7.07807 34.72 7.29675 34.0747 7.70033 33.5478C7.74783 33.4844 7.80943 33.433 7.88025 33.3976C7.95106 33.3622 8.02915 33.3438 8.10833 33.3438H12.1883C12.2662 33.344 12.343 33.362 12.4129 33.3965C12.4827 33.4309 12.5437 33.4809 12.5912 33.5427C13.0012 34.0688 13.2238 34.7168 13.2236 35.3838C13.2236 35.7878 13.1437 36.1878 12.9883 36.5607C12.8329 36.9336 12.6052 37.2721 12.3184 37.5566C12.0315 37.8411 11.6912 38.0659 11.317 38.2182C10.9428 38.3705 10.5421 38.4471 10.1381 38.4438ZM8.37863 34.3638C8.195 34.6723 8.09809 35.0247 8.09813 35.3838C8.09813 35.9248 8.31305 36.4437 8.69563 36.8263C9.0782 37.2088 9.59708 37.4238 10.1381 37.4238C10.6792 37.4238 11.1981 37.2088 11.5806 36.8263C11.9632 36.4437 12.1781 35.9248 12.1781 35.3838C12.1779 35.0241 12.0791 34.6713 11.8925 34.3638H8.38373H8.37863Z" fill="#8629FD"/>
</svg>
