<svg width="48" height="48" viewBox="0 0 48 48" fill="none" xmlns="http://www.w3.org/2000/svg">
<path fill-rule="evenodd" clip-rule="evenodd" d="M28.722 15.5065L34.7766 19.4827L35.7252 17.9761L29.67 13.9999L28.722 15.5065ZM18.1338 13.9999L12.0948 17.9761L13.0272 19.4827L19.2792 15.5065L18.1338 13.9999ZM23.9928 30.4165C30.4236 30.4165 34.0236 34.2115 34.0236 34.2115V36.0793C34.0236 36.0793 30.4236 32.3137 23.9928 32.3137C17.3814 32.3137 13.7928 36.0793 13.7928 36.0793V34.2115C13.7928 34.2115 17.379 30.4165 23.9928 30.4165ZM33.0744 2.49309H14.7456C11.3418 2.49309 8.1186 3.78849 5.859 6.07809C3.585 8.33709 2.259 11.3491 2.259 14.9335V33.2485C2.259 36.8317 3.585 39.8449 5.859 42.1339C8.1186 44.3941 11.34 45.7201 14.7456 45.7201H33.0744C36.6594 45.7201 39.6864 44.3947 41.961 42.1345C44.2344 39.8455 45.741 36.6523 45.741 33.2491V14.9335C45.741 11.3491 44.2344 8.33709 41.961 6.07809C39.6864 3.78849 36.6594 2.49309 33.0744 2.49309ZM14.7456 0.0228882H33.0744C37.2318 0.0228882 40.8306 1.71009 43.6626 4.36089C46.3122 7.19169 48 10.8073 48 14.9335V33.2485C48 37.4047 46.3122 40.9885 43.6626 43.6399C40.8306 46.4719 37.2318 47.9773 33.0744 47.9773H14.7456C10.5732 47.9773 6.9882 46.4719 4.3374 43.6399C1.5066 40.9903 0 37.4047 0 33.2485V14.9335C0 10.8073 1.5066 7.19349 4.3374 4.36089C6.9882 1.71009 10.5732 0.0228882 14.7456 0.0228882Z" fill="#8629FD"/>
</svg>
