<svg width="48" height="48" viewBox="0 0 48 48" fill="none" xmlns="http://www.w3.org/2000/svg">
<path fill-rule="evenodd" clip-rule="evenodd" d="M28.149 19.0854L29.28 20.412L33.2562 16.6428L37.05 20.412L38.3454 19.0854L33.2556 13.9896L28.149 19.0854ZM35.1528 30.42H12.6528C12.6528 30.42 15.1062 37.8066 23.9928 37.8066C33.0738 37.8066 35.1528 30.42 35.1528 30.42ZM10.1964 28.7322H37.788C37.788 28.7322 35.9064 39.6774 23.9928 39.6774C12.0948 39.6774 10.1964 28.7322 10.1964 28.7322ZM10.9494 20.412L9.6234 19.0854L14.73 13.9896L20.0166 19.0854L18.7062 20.412L14.73 16.6428L10.9494 20.412ZM33.2556 2.472H14.73C11.3268 2.472 8.3136 3.7692 6.0402 6.06C3.7644 8.3202 2.2602 11.3364 2.2602 14.9238V33.255C2.2602 36.8436 3.7656 39.8586 6.0402 42.1506C8.3136 44.4108 11.3268 45.7374 14.73 45.7374H33.2556C36.6594 45.7374 39.882 44.4108 42.141 42.1506C44.4 39.8586 45.7254 36.663 45.7254 33.255V14.9238C45.7254 11.3364 44.4 8.3202 42.141 6.06C39.882 3.7692 36.66 2.472 33.2556 2.472ZM14.73 0H33.2556C37.2318 0 41.0106 1.6878 43.6476 4.3416C46.2984 7.176 48 10.7934 48 14.9238V33.255C48 37.4172 46.2984 41.004 43.6476 43.6572C41.0076 46.4922 37.2318 48 33.2556 48H14.73C10.7538 48 6.9726 46.4922 4.3374 43.6572C1.6866 41.004 0 37.4172 0 33.255V14.9238C0 10.7934 1.6866 7.176 4.3374 4.3416C6.9726 1.6878 10.7538 0 14.73 0Z" fill="#8629FD"/>
</svg>
