<svg width="24" height="24" viewBox="0 0 24 24" fill="none" xmlns="http://www.w3.org/2000/svg">
<path d="M17.9996 16.08C17.2731 16.0832 16.574 16.3578 16.0396 16.85L8.9096 12.7C8.96473 12.4706 8.99491 12.2359 8.9996 12C8.99491 11.7641 8.96473 11.5294 8.9096 11.3L15.9596 7.19C16.4644 7.65717 17.1146 7.93624 17.801 7.98027C18.4873 8.02431 19.1679 7.83063 19.7282 7.4318C20.2885 7.03297 20.6944 6.45334 20.8775 5.79041C21.0607 5.12748 21.0099 4.4217 20.7338 3.7918C20.4577 3.16189 19.973 2.64631 19.3614 2.33176C18.7498 2.01722 18.0485 1.92292 17.3755 2.06472C16.7025 2.20652 16.0989 2.57577 15.6662 3.11036C15.2335 3.64494 14.9981 4.31224 14.9996 5C15.0043 5.2359 15.0345 5.47059 15.0896 5.7L8.0396 9.81C7.6126 9.41023 7.07804 9.14401 6.5017 9.04409C5.92536 8.94418 5.33239 9.01493 4.79574 9.24764C4.25909 9.48035 3.80217 9.86487 3.48122 10.3539C3.16026 10.8429 2.98926 11.4151 2.98926 12C2.98926 12.5849 3.16026 13.1571 3.48122 13.6461C3.80217 14.1351 4.25909 14.5197 4.79574 14.7524C5.33239 14.9851 5.92536 15.0558 6.5017 14.9559C7.07804 14.856 7.6126 14.5898 8.0396 14.19L15.1596 18.35C15.1078 18.5628 15.0809 18.781 15.0796 19C15.0796 19.5775 15.2509 20.1421 15.5717 20.6223C15.8926 21.1025 16.3486 21.4767 16.8822 21.6977C17.4157 21.9187 18.0028 21.9766 18.5693 21.8639C19.1357 21.7512 19.656 21.4731 20.0644 21.0648C20.4727 20.6564 20.7508 20.1361 20.8635 19.5697C20.9762 19.0032 20.9183 18.4161 20.6973 17.8826C20.4763 17.349 20.1021 16.893 19.6219 16.5721C19.1417 16.2513 18.5771 16.08 17.9996 16.08Z" fill="#8629FD"/>
</svg>
