<svg width="24" height="24" viewBox="0 0 24 24" fill="none" xmlns="http://www.w3.org/2000/svg">
<path d="M21.8998 8.89L20.8498 4.52C20.7497 4.08831 20.5064 3.70319 20.1597 3.42724C19.8129 3.15128 19.383 3.00071 18.9398 3H5.04983C4.60839 3.00296 4.18081 3.15456 3.83609 3.43033C3.49138 3.7061 3.24962 4.08997 3.14983 4.52L2.09983 8.89C1.97874 9.38569 1.97162 9.90238 2.07901 10.4012C2.1864 10.9001 2.4055 11.368 2.71983 11.77C2.80801 11.8715 2.90148 11.9683 2.99983 12.06V19C3.00141 19.5299 3.21264 20.0377 3.58737 20.4125C3.9621 20.7872 4.46988 20.9984 4.99983 21H18.9998C19.5298 20.9984 20.0376 20.7872 20.4123 20.4125C20.787 20.0377 20.9983 19.5299 20.9998 19V12.06C21.0981 11.9717 21.1916 11.8783 21.2798 11.78C21.5964 11.3773 21.8168 10.9076 21.9242 10.4067C22.0317 9.9059 22.0233 9.38713 21.8998 8.89ZM18.9098 4.99L19.9598 9.36C20.0104 9.56115 20.0142 9.77123 19.9708 9.97406C19.9275 10.1769 19.8382 10.3671 19.7098 10.53C19.6005 10.676 19.4586 10.7946 19.2954 10.8762C19.1322 10.9578 18.9523 11.0002 18.7698 11C18.4635 10.9914 18.1709 10.8705 17.9479 10.6603C17.7248 10.4501 17.5867 10.1653 17.5598 9.86L16.9798 5L18.9098 4.99ZM12.9998 5H14.9598L15.4998 9.52C15.525 9.71159 15.5085 9.90635 15.4516 10.091C15.3946 10.2757 15.2985 10.4459 15.1698 10.59C15.0524 10.7253 14.9061 10.8324 14.7416 10.9034C14.5771 10.9743 14.3988 11.0074 14.2198 11C13.8849 10.9865 13.5688 10.8412 13.3404 10.5959C13.1119 10.3506 12.9895 10.0251 12.9998 9.69V5ZM8.48983 9.52L9.03983 5H10.9998V9.69C11.0032 9.86126 10.9722 10.0315 10.9088 10.1906C10.8454 10.3497 10.7509 10.4946 10.6307 10.6166C10.5105 10.7387 10.3671 10.8355 10.209 10.9013C10.0508 10.9671 9.88113 11.0007 9.70983 11C9.54099 10.9981 9.37444 10.9606 9.22108 10.89C9.06771 10.8193 8.93098 10.7171 8.81983 10.59C8.69523 10.4433 8.60172 10.2728 8.545 10.0889C8.48827 9.90494 8.4695 9.7114 8.48983 9.52ZM4.03983 9.36L5.04983 5H7.01983L6.43983 9.86C6.41151 10.1648 6.27297 10.4487 6.0502 10.6586C5.82743 10.8685 5.53573 10.9899 5.22983 11C5.04877 11.0003 4.87019 10.9579 4.7086 10.8763C4.547 10.7946 4.40696 10.676 4.29983 10.53C4.16739 10.3692 4.0748 10.1795 4.02962 9.97616C3.98444 9.77283 3.98794 9.56171 4.03983 9.36ZM4.99983 19V12.97C5.07578 12.9849 5.1526 12.9949 5.22983 13C5.64772 12.9993 6.06123 12.9148 6.44595 12.7516C6.83068 12.5885 7.17882 12.3499 7.46983 12.05C7.77206 12.3544 8.13212 12.5953 8.52884 12.7584C8.92555 12.9216 9.3509 13.0037 9.77983 13C10.6168 12.9965 11.4184 12.6622 12.0098 12.07C12.6226 12.6669 13.4444 13.0007 14.2998 13C14.7173 12.9967 15.1301 12.9111 15.5144 12.7481C15.8988 12.5851 16.2473 12.3479 16.5398 12.05C16.8308 12.3499 17.179 12.5885 17.5637 12.7516C17.9484 12.9148 18.3619 12.9993 18.7798 13C18.8571 12.9949 18.9339 12.9849 19.0098 12.97V19H4.99983Z" fill="#808080"/>
</svg>
