<svg width="24" height="24" viewBox="0 0 24 24" fill="none" xmlns="http://www.w3.org/2000/svg">
<path d="M18 8C18 6.4087 17.3679 4.88258 16.2426 3.75736C15.1174 2.63214 13.5913 2 12 2C10.4087 2 8.88258 2.63214 7.75736 3.75736C6.63214 4.88258 6 6.4087 6 8C6 12.5 12 19 12 19C12 19 18 12.5 18 8ZM10 8C10 7.60444 10.1173 7.21776 10.3371 6.88886C10.5568 6.55996 10.8692 6.30362 11.2346 6.15224C11.6001 6.00087 12.0022 5.96126 12.3902 6.03843C12.7781 6.1156 13.1345 6.30608 13.4142 6.58579C13.6939 6.86549 13.8844 7.22186 13.9616 7.60982C14.0387 7.99778 13.9991 8.39991 13.8478 8.76537C13.6964 9.13082 13.44 9.44318 13.1111 9.66294C12.7822 9.8827 12.3956 10 12 10C11.4701 9.99842 10.9623 9.7872 10.5875 9.41247C10.2128 9.03773 10.0016 8.52995 10 8ZM5 20V22H19V20H5Z" fill="#8629FD"/>
</svg>
