<svg width="30" height="24" viewBox="0 0 30 24" fill="none" xmlns="http://www.w3.org/2000/svg">
<path d="M9.64391 19.2C9.14359 19.2 8.65451 19.3408 8.23851 19.6045C7.82251 19.8682 7.49828 20.243 7.30682 20.6816C7.11535 21.1201 7.06526 21.6027 7.16287 22.0682C7.26047 22.5338 7.5014 22.9614 7.85518 23.2971C8.20896 23.6327 8.6597 23.8613 9.1504 23.9539C9.64111 24.0465 10.1497 23.999 10.612 23.8173C11.0742 23.6357 11.4693 23.3281 11.7472 22.9334C12.0252 22.5387 12.1736 22.0747 12.1736 21.6C12.1736 20.9635 11.907 20.353 11.4326 19.903C10.9582 19.4529 10.3148 19.2 9.64391 19.2Z" fill="#0BCE83"/>
<path d="M22.2923 19.2C21.792 19.2 21.3029 19.3408 20.8869 19.6045C20.471 19.8682 20.1467 20.243 19.9553 20.6816C19.7638 21.1201 19.7137 21.6027 19.8113 22.0682C19.9089 22.5338 20.1498 22.9614 20.5036 23.2971C20.8574 23.6327 21.3081 23.8613 21.7988 23.9539C22.2895 24.0465 22.7982 23.999 23.2604 23.8173C23.7226 23.6357 24.1177 23.3281 24.3957 22.9334C24.6736 22.5387 24.822 22.0747 24.822 21.6C24.822 20.9635 24.5555 20.353 24.0811 19.903C23.6067 19.4529 22.9633 19.2 22.2923 19.2Z" fill="#0BCE83"/>
<path d="M20.4584 13.2C20.9103 13.2014 21.3542 13.0873 21.7437 12.8698C22.1331 12.6524 22.4537 12.3395 22.6718 11.964L27.1999 4.176C27.3049 3.9939 27.3584 3.78907 27.355 3.58152C27.3517 3.37397 27.2916 3.1708 27.1807 2.99185C27.0699 2.8129 26.912 2.6643 26.7224 2.56057C26.5329 2.45683 26.3183 2.40151 26.0995 2.4H7.38009L6.19116 0H2.05518V2.4H4.58483L9.1382 11.508L7.43069 14.436C7.21707 14.8014 7.10772 15.2135 7.11347 15.6313C7.11921 16.0492 7.23986 16.4583 7.46345 16.8184C7.68705 17.1784 8.00586 17.4768 8.38833 17.684C8.7708 17.8913 9.20368 18.0002 9.64413 18H24.822V15.6H9.64413L11.0354 13.2H20.4584ZM8.58168 4.8H23.9493L20.4584 10.8H11.5793L8.58168 4.8Z" fill="#0BCE83"/>
</svg>
