<svg width="24" height="24" viewBox="0 0 24 24" fill="none" xmlns="http://www.w3.org/2000/svg">
<path d="M7.57979 4.08L6.14979 2.65C4.92833 3.57526 3.92587 4.75841 3.21376 6.11522C2.50164 7.47204 2.09739 8.96916 2.02979 10.5H4.02979C4.10069 9.23183 4.45671 7.99598 5.07135 6.88444C5.68598 5.7729 6.5434 4.81431 7.57979 4.08ZM19.9698 10.5H21.9698C21.8978 8.97009 21.4917 7.47449 20.7799 6.11832C20.0681 4.76215 19.068 3.57831 17.8498 2.65L16.4298 4.08C17.4615 4.81812 18.315 5.77783 18.9275 6.88872C19.5401 7.99962 19.8962 9.23355 19.9698 10.5ZM17.9998 11C17.9998 7.93 16.3598 5.36 13.4998 4.68V4C13.4998 3.60218 13.3418 3.22064 13.0604 2.93934C12.7791 2.65804 12.3976 2.5 11.9998 2.5C11.602 2.5 11.2204 2.65804 10.9391 2.93934C10.6578 3.22064 10.4998 3.60218 10.4998 4V4.68C7.62979 5.36 5.99979 7.92 5.99979 11V16L3.99979 18V19H19.9998V18L17.9998 16V11ZM11.9998 22C12.1342 22.0021 12.2684 21.9886 12.3998 21.96C12.7166 21.8925 13.0126 21.7502 13.2631 21.5449C13.5136 21.3396 13.7114 21.0773 13.8398 20.78C13.9412 20.5326 13.9922 20.2674 13.9898 20H9.98979C9.99348 20.531 10.2067 21.0391 10.5832 21.4137C10.9596 21.7882 11.4687 21.999 11.9998 22Z" fill="#FF6672"/>
</svg>
