<svg width="24" height="24" viewBox="0 0 24 24" fill="none" xmlns="http://www.w3.org/2000/svg">
<path d="M21.0002 10.125H14.2152L16.9601 7.305C14.2302 4.6 9.81015 4.5 7.08015 7.205C4.35015 9.91 4.35015 14.29 7.08015 16.995C9.81015 19.7 14.2302 19.7 16.9601 16.995C18.3201 15.645 19.0002 14.08 18.9952 12.1H21.0002C21.0002 14.08 20.1202 16.65 18.3602 18.395C14.8502 21.87 9.15015 21.87 5.64015 18.395C2.13015 14.92 2.10515 9.285 5.61515 5.81C9.12015 2.335 14.7601 2.335 18.2652 5.81L21.0002 3V10.125ZM12.5002 8V12.25L16.0002 14.33L15.2802 15.54L11.0002 13V8H12.5002Z" fill="#8629FD"/>
</svg>
