<svg width="40" height="40" viewBox="0 0 40 40" fill="none" xmlns="http://www.w3.org/2000/svg">
<path d="M39.6269 20.8673C38.426 19.2662 37.2252 19.2662 34.2899 20.8006L31.3545 22.6095V6.99114C31.3545 5.92378 30.4873 4.98979 29.3532 4.98979H23.3491V4.32269C23.3491 3.92242 23.0823 3.6556 22.682 3.6556H16.0109C15.6106 3.6556 15.3438 3.92242 15.3438 4.32269V4.98979H9.33969C8.27233 4.98979 7.33833 5.85702 7.33833 6.99114V18.9994C6.2952 19.4193 5.34988 19.9624 4.66988 20.3969V18.9994H0V36.3445H4.66981V34.3431H13.3423C14.6766 34.3431 16.0775 34.2097 17.4117 34.143L26.0842 32.8087C26.4178 32.8087 26.7513 32.742 27.0182 32.6753C27.8188 32.5418 28.5526 32.1415 29.2197 31.5411L39.2932 23.5357C40.0938 22.8686 40.2273 21.6678 39.6269 20.8673ZM16.6779 4.98979H22.0149V5.65688V10.26L19.7467 8.45878C19.5466 8.25864 19.213 8.25864 18.9462 8.45878L16.678 10.26V5.65696V4.98979H16.6779ZM8.67252 6.99114C8.67252 6.65756 8.93934 6.32405 9.33961 6.32405H15.3437V10.3934C15.3437 10.8604 15.6105 11.3274 16.0775 11.5276C16.2057 11.5917 16.3954 11.6551 16.5875 11.6601C16.8777 11.6826 17.1582 11.6055 17.4118 11.3942L19.3465 9.85981L21.1477 11.3942C21.4085 11.5681 21.6976 11.6563 21.9965 11.6418C22.1989 11.6527 22.4071 11.6169 22.6153 11.5277C23.0823 11.3275 23.3492 10.8606 23.3492 10.3935V6.32405H29.2198C29.5534 6.32405 29.8869 6.59087 29.8869 6.99114V23.469L28.4859 24.3363C27.696 24.797 25.9321 24.933 24.2832 24.9365C24.6166 24.3361 24.4832 23.6023 23.8828 22.7352C22.8155 21.2008 21.0142 20.2669 19.0796 20.2669H19.0129H16.4778C15.0769 20.2669 13.7426 19.8666 12.6752 19.066C12.0629 18.6068 11.3626 18.3921 10.6288 18.3456C10.5127 18.3369 10.3943 18.3322 10.2736 18.3322C9.80665 18.3322 9.27292 18.3989 8.67252 18.5323V6.99114ZM3.33562 35.0101H1.33426V20.3335H3.33562V21.3342V34.343V35.0101ZM38.4927 22.6017L28.3526 30.4738L28.2859 30.5405C27.8856 31.0074 27.3519 31.2743 26.7515 31.341C26.4847 31.4077 26.2845 31.4077 26.0176 31.4077L17.2117 32.742C15.9442 32.9421 14.6099 33.0088 13.3424 33.0088H4.66981V22.0013C5.44314 21.4535 6.71439 20.6724 8.03271 20.1765C8.11253 20.1753 8.19243 20.1601 8.27225 20.1334C9.87333 19.5997 11.0741 19.5997 11.8747 20.2001C13.1422 21.1341 14.7433 21.6677 16.4778 21.6677H19.0796C20.614 21.6677 22.0149 22.3348 22.8155 23.6024C23.1421 23.9943 23.2125 24.3856 23.1526 24.527C23.1514 24.5301 23.1504 24.5336 23.149 24.5364C23.0872 24.6393 22.968 24.7231 22.8076 24.7918C22.8041 24.7933 22.8009 24.7948 22.7974 24.7963C22.7775 24.8046 22.7562 24.8124 22.7351 24.8203C22.7164 24.8271 22.6982 24.8342 22.6783 24.8408C22.672 24.843 22.6653 24.845 22.6588 24.8471C22.5519 24.8819 22.4293 24.9138 22.2903 24.9421C22.2896 24.9423 22.2888 24.9424 22.2881 24.9426C22.2434 24.9517 22.1969 24.9603 22.1491 24.9686C22.1405 24.97 22.1318 24.9715 22.1231 24.9729C22.0811 24.9801 22.0377 24.9869 21.9933 24.9934C21.983 24.9949 21.9728 24.9965 21.9625 24.998C21.7416 25.0293 21.4922 25.0538 21.2143 25.0701C21.0762 25.0701 20.9398 25.0701 20.814 25.0701C20.7174 25.0701 20.6269 25.0701 20.5472 25.0701H14.343C12.275 25.0701 11.0074 26.0708 11.0074 27.7386C11.0074 28.1388 11.2742 28.4057 11.6745 28.4057C12.0747 28.4057 12.3416 28.1388 12.3416 27.7386C12.3416 27.405 12.3416 26.4043 14.3429 26.4043H20.4804C20.6806 26.4043 20.9474 26.4043 21.3477 26.4043C21.4144 26.4043 21.5478 26.4043 21.6813 26.4043C24.8167 26.471 27.752 26.4043 29.2864 25.6038L35.0237 22.0681C37.8256 20.6671 38.0925 21.0007 38.6262 21.8013C38.7596 22.0013 38.7596 22.4016 38.4927 22.6017Z" fill="#8629FD"/>
</svg>
