<svg width="40" height="40" viewBox="0 0 40 40" fill="none" xmlns="http://www.w3.org/2000/svg">
<path d="M40 8.66664C40 3.86664 36.1334 0 31.3334 0C26.7577 0 23.0302 3.51367 22.6918 8H20V7.33336C20 6.93336 19.7334 6.66672 19.3334 6.66672H12.6667C12.2667 6.66672 12.0001 6.93336 12.0001 7.33336V8H3.33336C1.46664 8 0 9.46664 0 11.3334V36.6667C0 38.5334 1.53336 40 3.33336 40H28.6667C30.5334 40 32.0001 38.5334 32.0001 36.6666V17.3083C36.4863 16.9698 40 13.2423 40 8.66664ZM13.3334 8H18.6667V8.66664V15.2666L16.4001 13.4666C16.2001 13.2666 15.8667 13.2666 15.6001 13.4666L13.3334 15.2666V8.66664V8H13.3334ZM30.6666 36.6666C30.6666 37.8 29.8 38.6666 28.6666 38.6666H3.33336C2.2 38.6666 1.33336 37.8 1.33336 36.6666V11.3334C1.33336 10.2 2.2 9.33336 3.33336 9.33336H12V15.4C12 15.8666 12.2666 16.3334 12.7334 16.5334C13.1334 16.7334 13.6667 16.7334 14.0667 16.4L16.0001 14.8666L17.9334 16.4C18.2001 16.6 18.4668 16.6666 18.7334 16.6666C18.9334 16.6666 19.1334 16.6666 19.2668 16.5333C19.7334 16.3333 20.0002 15.8666 20.0002 15.3999V9.33328H22.6668C23.0002 13.5999 26.4002 16.9999 30.6668 17.3333V36.6666H30.6666ZM31.3334 16C27.2667 16 24 12.7334 24 8.66664C24 4.59992 27.2666 1.33328 31.3334 1.33328C35.4 1.33328 38.6667 4.59992 38.6667 8.66664C38.6667 12.7334 35.4 16 31.3334 16Z" fill="#8629FD"/>
<path d="M35.6671 4.79999C35.3337 4.59999 34.9337 4.66663 34.7337 4.99999L30.5337 11.6L27.8003 8.86663C27.5337 8.59999 27.1337 8.59999 26.867 8.86663C26.6003 9.13327 26.6003 9.53327 26.867 9.79999L30.2003 13.1334C30.3337 13.2667 30.467 13.3334 30.667 13.3334C30.667 13.3334 30.7336 13.3334 30.7336 13.4C30.9336 13.3334 31.067 13.2666 31.2003 13.0666L35.8669 5.73327C36.0671 5.39999 36.0004 4.99999 35.6671 4.79999Z" fill="#8629FD"/>
<path d="M14 28H4.66664C4.26664 28 4 28.2666 4 28.6666V36.6666C4 37.0666 4.26664 37.3333 4.66664 37.3333H14C14.4 37.3333 14.6666 37.0666 14.6666 36.6666V28.6666C14.6666 28.2666 14.4 28 14 28ZM13.3334 36H5.33336V29.3333H13.3334V36Z" fill="#8629FD"/>
<path d="M7.33363 32H11.3336C11.7336 32 12.0003 31.7334 12.0003 31.3334C12.0003 30.9334 11.7336 30.6667 11.3336 30.6667H7.33363C6.93363 30.6667 6.66699 30.9334 6.66699 31.3334C6.66691 31.7334 6.93363 32 7.33363 32Z" fill="#8629FD"/>
<path d="M7.33363 34.6666H10.0003C10.4003 34.6666 10.6669 34.4 10.6669 34C10.6669 33.6 10.4003 33.3334 10.0003 33.3334H7.33363C6.93363 33.3334 6.66699 33.6 6.66699 34C6.66699 34.4 6.93363 34.6666 7.33363 34.6666Z" fill="#8629FD"/>
</svg>
