<svg width="50" height="48" viewBox="0 0 50 48" fill="none" xmlns="http://www.w3.org/2000/svg">
<path fill-rule="evenodd" clip-rule="evenodd" d="M29.7331 17.58H37.1197V15.8892H29.7331V17.58ZM14.9755 30.42V32.3196C14.9755 32.3196 18.7597 36.0906 25.2103 36.0906C31.6303 36.0906 35.2363 32.3214 35.2363 32.3214V30.42C35.2363 30.42 31.6327 34.2186 25.2103 34.2186C18.7597 34.2204 14.9755 30.42 14.9755 30.42ZM20.4631 17.58H13.0909V15.8892H20.4631V17.58ZM34.2853 2.472H15.9253C12.3217 2.472 9.30733 3.7692 7.03093 6.06C4.76953 8.3202 3.44293 11.3364 3.44293 14.9238V33.255C3.44293 36.663 4.76953 39.8586 7.03093 42.1506C9.30733 44.4108 12.3217 45.7374 15.9253 45.7374H34.2853C37.8739 45.7374 40.9033 44.4108 43.1653 42.1506C45.4411 39.8586 46.7653 36.663 46.7653 33.255V14.9238C46.7653 11.3364 45.4387 8.3202 43.1653 6.06C40.9033 3.7692 37.8739 2.472 34.2853 2.472ZM15.9253 0H34.2853C38.4463 0 42.0343 1.6878 44.6875 4.3416C47.5213 7.176 49.0297 10.7934 49.0297 14.9238V33.255C49.0297 37.4172 47.5213 41.004 44.6875 43.6572C42.0343 46.4922 38.4463 48 34.2853 48H15.9253C11.7637 48 8.16073 46.4922 5.34253 43.6572C2.68933 41.004 0.969727 37.4172 0.969727 33.255V14.9238C0.969727 10.7934 2.68933 7.176 5.34253 4.3416C8.16253 1.6878 11.7625 0 15.9253 0Z" fill="#8629FD"/>
</svg>
